Coordinates
version=1
nRows=16
nColumns=63
inDegrees=yes

Units are S.I. units (second, meters, Newtons, ...)
If the header above contains a line with 'inDegrees', this indicates whether rotational values are in degrees (yes) or radians (no).

endheader
time	pelvis_tilt	pelvis_list	pelvis_rotation	pelvis_tx	pelvis_ty	pelvis_tz	hip_flexion_r	hip_adduction_r	hip_rotation_r	knee_angle_r	knee_angle_r_beta	ankle_angle_r	subtalar_angle_r	mtp_angle_r	hip_flexion_l	hip_adduction_l	hip_rotation_l	knee_angle_l	knee_angle_l_beta	ankle_angle_l	subtalar_angle_l	mtp_angle_l	L5_S1_Flex_Ext	L5_S1_Lat_Bending	L5_S1_axial_rotation	L4_L5_Flex_Ext	L4_L5_Lat_Bending	L4_L5_axial_rotation	L3_L4_Flex_Ext	L3_L4_Lat_Bending	L3_L4_axial_rotation	L2_L3_Flex_Ext	L2_L3_Lat_Bending	L2_L3_axial_rotation	L1_L2_Flex_Ext	L1_L2_Lat_Bending	L1_L2_axial_rotation	L1_T12_Flex_Ext	L1_T12_Lat_Bending	L1_T12_axial_rotation	Abs_r3	Abs_r2	Abs_r1	Abs_t1	Abs_t2	neck_flexion	neck_bending	neck_rotation	arm_flex_r	arm_add_r	arm_rot_r	elbow_flex_r	pro_sup_r	wrist_flex_r	wrist_dev_r	arm_flex_l	arm_add_l	arm_rot_l	elbow_flex_l	pro_sup_l	wrist_flex_l	wrist_dev_l
0.944444	-3.294037	-7.199710	87.560191	0.173966	1.006951	0.366210	-4.024057	-2.483432	-11.578878	14.835563	0.258929	32.737507	-3.472690	0.000000	-6.204985	1.617095	-7.248861	4.642896	0.081034	35.918784	7.880875	0.000000	-0.409397	0.073607	-1.938233	-0.760290	0.097897	-2.059373	-0.672598	0.178968	-2.059373	-0.467899	0.178968	-1.695954	-0.380166	0.150100	-1.574814	-0.233929	0.114017	-1.453675	-2.924279	0.832658	-10.779871	0.000000	0.000000	-14.920027	-3.088467	11.193753	51.180218	8.094617	-3.302805	126.823859	85.220717	-7.397407	3.025350	-2.666985	-12.597309	107.279065	2.158502	20.020258	-28.727063	-13.789519
0.962963	-3.271659	-7.394290	87.864124	0.172817	1.006584	0.366710	-3.817739	-2.539967	-12.235250	14.899414	0.260044	32.908761	-2.911434	0.000000	-6.038646	1.627131	-6.377055	4.514279	0.078789	35.725752	7.135119	0.000000	-0.413302	0.108017	-1.865471	-0.767543	0.143663	-1.982063	-0.679013	0.262633	-1.982063	-0.472363	0.262633	-1.632287	-0.383792	0.220269	-1.515695	-0.236161	0.167319	-1.399103	-2.952173	1.221912	-10.375189	0.000000	0.000000	-15.350301	-4.068973	11.013317	51.570988	8.665462	-4.031616	127.492356	85.149151	-8.103042	3.478682	-2.293311	-12.388783	110.681548	1.660238	20.386302	-29.790866	-13.611462
0.981481	-3.281448	-7.593430	88.120181	0.171824	1.006228	0.367305	-3.578099	-2.624774	-12.780970	14.998301	0.261770	33.033616	-2.500586	0.000000	-5.860364	1.665117	-5.647214	4.395511	0.076716	35.563891	6.578754	0.000000	-0.415220	0.135063	-1.768081	-0.771105	0.179634	-1.878586	-0.682165	0.328393	-1.878586	-0.474555	0.328393	-1.547071	-0.385573	0.275421	-1.436566	-0.237257	0.209213	-1.326061	-2.965875	1.527864	-9.833538	0.000000	0.000000	-15.735432	-4.861321	10.640799	51.826560	8.977048	-4.436940	128.140382	85.185350	-9.554643	3.979326	-1.880986	-12.241500	113.679814	1.284981	21.074283	-30.788897	-13.218543
1.000000	-3.313557	-7.785134	88.351904	0.170939	1.005895	0.367951	-3.334806	-2.725650	-13.244890	15.108109	0.263686	33.104406	-2.246230	0.000000	-5.684536	1.723420	-4.978971	4.283820	0.074767	35.436907	6.142254	0.000000	-0.415622	0.156642	-1.667445	-0.771851	0.208333	-1.771661	-0.682825	0.380858	-1.771661	-0.475014	0.380858	-1.459015	-0.385946	0.319423	-1.354799	-0.237486	0.242638	-1.250584	-2.968743	1.771960	-9.273831	0.000000	0.000000	-16.102237	-5.488575	10.209850	52.062248	9.090485	-4.453511	128.642362	85.339967	-11.587535	4.508165	-1.498433	-12.156698	115.833829	1.076630	22.453645	-31.744309	-12.547416
1.018519	-3.353617	-7.955792	88.548467	0.170148	1.005580	0.368619	-3.105258	-2.831968	-13.626013	15.226519	0.265753	33.127887	-2.128808	0.000000	-5.529706	1.791245	-4.387188	4.175635	0.072879	35.357471	5.812873	0.000000	-0.416070	0.175709	-1.571999	-0.772684	0.233692	-1.670249	-0.683562	0.427218	-1.670249	-0.475527	0.427218	-1.375499	-0.386363	0.358305	-1.277249	-0.237743	0.272173	-1.178999	-2.971949	1.987651	-8.742985	0.000000	0.000000	-16.449869	-5.977364	9.832724	52.337082	9.054843	-4.069313	128.944143	85.617558	-14.019589	5.084544	-1.137889	-12.112334	117.455375	0.998802	24.180617	-32.631835	-11.662474
1.037037	-3.400159	-8.095378	88.694760	0.169481	1.005290	0.369287	-2.902272	-2.939436	-13.899911	15.347915	0.267872	33.114042	-2.151878	0.000000	-5.406372	1.867338	-3.893258	4.074428	0.071112	35.334369	5.583398	0.000000	-0.418067	0.192473	-1.486809	-0.776393	0.255989	-1.579734	-0.686843	0.467979	-1.579734	-0.477809	0.467979	-1.300958	-0.388217	0.392491	-1.208032	-0.238884	0.298141	-1.115107	-2.986213	2.177292	-8.269185	0.000000	0.000000	-16.756755	-6.355372	9.561105	52.632925	8.919539	-3.315486	129.054191	86.009714	-16.657669	5.724723	-0.822288	-12.092308	118.425248	1.021097	26.204586	-33.450042	-10.692920
1.055556	-3.460948	-8.210596	88.837100	0.168920	1.005034	0.369921	-2.735297	-3.044803	-14.104119	15.448357	0.269625	33.071055	-2.309161	0.000000	-5.299081	1.948242	-3.481542	3.991562	0.069666	35.364799	5.469586	0.000000	-0.420583	0.205371	-1.422587	-0.781065	0.273143	-1.511499	-0.690976	0.499339	-1.511499	-0.480685	0.499339	-1.244764	-0.390554	0.418793	-1.155852	-0.240321	0.318120	-1.066941	-3.004184	2.323198	-7.912005	0.000000	0.000000	-16.988122	-6.589156	9.415936	52.879072	8.701381	-2.279565	128.998984	86.482826	-19.150918	6.254391	-0.556639	-12.091772	118.976593	1.080738	28.505024	-34.283215	-9.681493
1.074074	-3.538000	-8.306753	88.918473	0.168551	1.004796	0.370493	-2.583674	-3.150859	-14.147722	15.541931	0.271258	33.021818	-2.609300	0.000000	-5.210139	2.041511	-3.238238	3.913193	0.068298	35.445227	5.489207	0.000000	-0.423175	0.213952	-1.370941	-0.785878	0.284556	-1.456625	-0.695234	0.520203	-1.456625	-0.483647	0.520203	-1.199574	-0.392960	0.436291	-1.113890	-0.241802	0.331412	-1.028206	-3.022697	2.420268	-7.624765	0.000000	0.000000	-17.109424	-6.705173	9.401971	53.026804	8.432234	-1.065293	128.875030	86.991217	-21.190869	6.834161	-0.381505	-12.096743	118.917221	1.156556	30.919578	-35.079061	-8.817506
1.092593	-3.652389	-8.391223	88.977249	0.168351	1.004576	0.370978	-2.447708	-3.278401	-14.108214	15.621298	0.272643	33.014517	-2.958973	0.000000	-5.128429	2.165617	-3.044240	3.834144	0.066918	35.536871	5.534035	0.000000	-0.424716	0.215440	-1.337094	-0.788741	0.286536	-1.420663	-0.697766	0.523822	-1.420663	-0.485408	0.523822	-1.169958	-0.394392	0.439326	-1.086389	-0.242683	0.333717	-1.002821	-3.033706	2.437104	-7.436518	0.000000	0.000000	-17.116088	-6.716031	9.505082	53.061892	8.145286	0.165856	128.702805	87.474149	-22.218421	7.426755	-0.288684	-12.100420	119.673696	1.120546	32.386684	-35.870329	-7.980290
1.111111	-3.795993	-8.459705	89.030770	0.168308	1.004384	0.371343	-2.337977	-3.408318	-13.935549	15.675302	0.273586	33.035247	-3.428094	0.000000	-5.056703	2.306535	-2.958581	3.763762	0.065690	35.644502	5.685350	0.000000	-0.424829	0.210492	-1.322855	-0.788950	0.279954	-1.405534	-0.697952	0.511789	-1.405534	-0.485537	0.511789	-1.157498	-0.394496	0.429234	-1.074820	-0.242747	0.326051	-0.992142	-3.034513	2.381122	-7.357325	0.000000	0.000000	-17.046357	-6.650587	9.694463	53.006380	7.901758	1.280692	128.451706	87.866881	-21.913690	8.024198	-0.305263	-12.122699	120.393109	1.069635	33.578737	-36.751119	-7.245893
1.129630	-3.963871	-8.522512	89.057769	0.168395	1.004204	0.371618	-2.236303	-3.540194	-13.611634	15.707759	0.274152	33.084302	-3.996978	0.000000	-4.984618	2.463076	-3.010400	3.702112	0.064614	35.756042	5.962115	0.000000	-0.422794	0.200933	-1.322532	-0.785171	0.267240	-1.405191	-0.694609	0.488548	-1.405191	-0.483211	0.488548	-1.157216	-0.392607	0.409742	-1.074557	-0.241585	0.311245	-0.991899	-3.019977	2.272991	-7.355528	0.000000	0.000000	-16.909699	-6.615121	9.901898	52.904104	7.716153	2.256251	128.097610	88.175746	-20.462600	8.592015	-0.424454	-12.157373	120.996601	1.007725	34.414922	-37.629606	-6.716567
1.148148	-4.124413	-8.574925	89.089613	0.168569	1.004045	0.371761	-2.157484	-3.648991	-13.252004	15.717524	0.274323	33.157851	-4.558634	0.000000	-4.923223	2.606253	-3.052184	3.648102	0.063671	35.843132	6.209161	0.000000	-0.419700	0.190176	-1.336726	-0.779425	0.252934	-1.420271	-0.689525	0.462395	-1.420271	-0.479675	0.462395	-1.169635	-0.389734	0.387807	-1.086090	-0.239817	0.294583	-1.002544	-2.997877	2.151312	-7.434467	0.000000	0.000000	-16.787638	-6.523072	10.134935	52.779748	7.645261	2.903928	127.658450	88.395715	-17.584765	9.397690	-0.613559	-12.199318	121.607940	0.947194	35.093266	-38.599342	-6.194235
1.166667	-4.311638	-8.614923	89.082266	0.168804	1.003881	0.371813	-2.086873	-3.773487	-12.758837	15.727855	0.274503	33.246946	-5.188868	0.000000	-4.879849	2.777321	-3.227162	3.599019	0.062815	35.895197	6.557438	0.000000	-0.417267	0.175941	-1.364622	-0.774907	0.234002	-1.449911	-0.685529	0.427784	-1.449911	-0.476895	0.427784	-1.194044	-0.387475	0.358779	-1.108755	-0.238427	0.272533	-1.023466	-2.980500	1.990283	-7.589616	0.000000	0.000000	-16.672801	-6.445236	10.459000	52.726147	7.711630	3.246849	127.017210	88.524389	-13.391343	10.172586	-0.883772	-12.234043	122.011214	0.886608	35.343986	-39.500270	-5.842604
1.185185	-4.469185	-8.664468	89.089786	0.169074	1.003708	0.371750	-2.021661	-3.852357	-12.248300	15.721040	0.274384	33.282675	-5.872534	0.000000	-4.815940	2.908444	-3.490059	3.601125	0.062851	35.937149	6.998208	0.000000	-0.412759	0.163593	-1.397166	-0.766534	0.217579	-1.484489	-0.678121	0.397761	-1.484489	-0.471742	0.397761	-1.222520	-0.383288	0.333599	-1.135197	-0.235850	0.253406	-1.047874	-2.948295	1.850600	-7.770617	0.000000	0.000000	-16.642619	-6.319968	10.703908	52.731862	7.923637	3.114497	126.361631	88.641425	-7.980961	11.475232	-1.177845	-12.276752	122.333490	0.851740	35.253623	-40.337603	-5.699224
1.203704	-4.602568	-8.715319	89.103212	0.169366	1.003544	0.371629	-1.971659	-3.894680	-11.725444	15.691823	0.273874	33.254363	-6.594601	0.000000	-4.735514	3.004302	-3.976477	3.664565	0.063959	35.990292	7.694812	0.000000	-0.408738	0.152685	-1.434716	-0.759067	0.203071	-1.524386	-0.671516	0.371239	-1.524386	-0.467147	0.371239	-1.255376	-0.379554	0.311356	-1.165707	-0.233553	0.236509	-1.076037	-2.919574	1.727205	-7.979460	0.000000	0.000000	-16.707286	-6.104719	10.899338	52.769138	8.219406	2.695989	125.662997	88.689888	-2.197348	12.828557	-1.481663	-12.309249	122.668628	0.822884	34.808707	-41.035000	-5.608914
1.222222	-4.708604	-8.757326	89.136686	0.169614	1.003403	0.371425	-1.955056	-3.919898	-11.382392	15.647879	0.273107	33.191817	-7.133743	0.000000	-4.682845	3.083303	-4.152325	3.723553	0.064988	35.912381	7.977043	0.000000	-0.405735	0.144410	-1.476509	-0.753491	0.192065	-1.568791	-0.666583	0.351119	-1.568791	-0.463715	0.351119	-1.291945	-0.376766	0.294481	-1.199664	-0.231837	0.223691	-1.107382	-2.898127	1.633596	-8.211900	0.000000	0.000000	-16.872756	-5.810233	11.027188	52.812204	8.593628	2.017602	124.943011	88.670768	3.738010	14.135259	-1.790538	-12.316770	122.906503	0.803566	34.080699	-41.573841	-5.604936
